<?xml version="1.0" standalone="no"?>
<!DOCTYPE svg PUBLIC "-//W3C//DTD SVG 20010904//EN"
 "http://www.w3.org/TR/2001/REC-SVG-20010904/DTD/svg10.dtd">
<svg version="1.0" xmlns="http://www.w3.org/2000/svg"
 width="512.000000pt" height="512.000000pt" viewBox="0 0 512.000000 512.000000"
 preserveAspectRatio="xMidYMid meet">
<metadata>
Created by potrace 1.14, written by Peter Selinger 2001-2017
</metadata>
<g transform="translate(0.000000,512.000000) scale(0.100000,-0.100000)"
fill="#000000" stroke="none">
<path d="M2320 5109 c-472 -47 -931 -226 -1302 -508 -51 -38 -113 -88 -137
-111 -41 -38 -43 -42 -38 -83 6 -40 3 -45 -40 -89 -44 -45 -48 -47 -90 -41
-41 5 -45 4 -83 -38 -23 -24 -73 -86 -111 -137 -505 -665 -652 -1547 -389
-2342 194 -590 590 -1082 1130 -1404 292 -175 632 -291 990 -338 123 -16 497
-16 620 0 623 82 1150 356 1581 820 239 256 425 575 539 922 91 274 124 491
124 800 0 228 -9 329 -50 530 -141 689 -583 1304 -1204 1674 -289 173 -634
291 -980 336 -117 15 -445 21 -560 9z"/>
</g>
</svg>
